<svg width="86" height="54" viewBox="0 0 86 54" fill="none" xmlns="http://www.w3.org/2000/svg">
<path d="M24.336 -3.62396e-05C29.424 -3.62396e-05 33.744 1.03196 37.296 3.09596C40.848 5.15996 43.548 8.18397 45.396 12.168C47.268 16.152 48.204 21.012 48.204 26.748C48.204 32.148 47.196 36.84 45.18 40.824C43.188 44.784 40.368 47.856 36.72 50.04C33.096 52.2 28.812 53.28 23.868 53.28C18.804 53.28 14.484 52.248 10.908 50.184C7.35602 48.12 4.64402 45.096 2.77202 41.112C0.924016 37.128 1.62721e-05 32.268 1.62721e-05 26.532C1.62721e-05 21.132 0.996016 16.452 2.98802 12.492C5.00402 8.50796 7.83602 5.43596 11.484 3.27596C15.132 1.09196 19.416 -3.62396e-05 24.336 -3.62396e-05ZM31.212 28.44C31.212 22.536 30.936 17.82 30.384 14.292C29.856 10.764 29.04 8.21996 27.936 6.65996C26.856 5.09996 25.476 4.31996 23.796 4.31996C22.26 4.31996 20.988 5.00396 19.98 6.37197C18.972 7.71597 18.216 9.89996 17.712 12.924C17.232 15.924 16.992 19.896 16.992 24.84C16.992 30.744 17.256 35.46 17.784 38.988C18.336 42.516 19.152 45.06 20.232 46.62C21.336 48.18 22.728 48.96 24.408 48.96C25.944 48.96 27.216 48.288 28.224 46.944C29.232 45.576 29.976 43.392 30.456 40.392C30.96 37.368 31.212 33.384 31.212 28.44ZM56.6258 9.86397H58.8218C59.6618 9.86397 60.2618 10.08 60.6218 10.512C61.0058 10.944 61.1978 11.76 61.1978 12.96V42.804C61.1978 43.764 61.0058 44.496 60.6218 45C60.2618 45.48 59.7338 45.804 59.0378 45.972L55.4378 46.764C53.8298 47.148 53.0258 48.012 53.0258 49.356C53.0258 50.124 53.2778 50.736 53.7818 51.192C54.3098 51.624 55.1138 51.84 56.1938 51.84H82.3658C83.3018 51.84 83.9978 51.624 84.4538 51.192C84.9098 50.736 85.1378 50.124 85.1378 49.356C85.1378 47.988 84.4658 47.136 83.1218 46.8L79.9178 45.972C79.2698 45.804 78.7658 45.48 78.4058 45C78.0698 44.496 77.9018 43.764 77.9018 42.804V3.20396C77.9018 1.30796 76.9298 0.359963 74.9858 0.359963C74.3858 0.359963 73.8098 0.431964 73.2578 0.575965C72.7298 0.695965 72.1418 0.923964 71.4938 1.25996C69.5018 2.21996 67.6898 2.95196 66.0578 3.45596C64.4258 3.95996 62.4338 4.21196 60.0818 4.21196H56.8418C55.8098 4.21196 54.9938 4.48796 54.3938 5.03996C53.7938 5.56796 53.4938 6.23996 53.4938 7.05596C53.4938 7.87196 53.7458 8.54396 54.2498 9.07196C54.7538 9.59996 55.5458 9.86397 56.6258 9.86397Z" fill="#FDD6BA"/>
</svg>
