<svg width="98" height="54" viewBox="0 0 98 54" fill="none" xmlns="http://www.w3.org/2000/svg">
<path d="M24.336 -3.62396e-05C29.424 -3.62396e-05 33.744 1.03196 37.296 3.09596C40.848 5.15996 43.548 8.18397 45.396 12.168C47.268 16.152 48.204 21.012 48.204 26.748C48.204 32.148 47.196 36.84 45.18 40.824C43.188 44.784 40.368 47.856 36.72 50.04C33.096 52.2 28.812 53.28 23.868 53.28C18.804 53.28 14.484 52.248 10.908 50.184C7.356 48.12 4.644 45.096 2.772 41.112C0.924001 37.128 1.01328e-06 32.268 1.01328e-06 26.532C1.01328e-06 21.132 0.996001 16.452 2.988 12.492C5.004 8.50796 7.836 5.43596 11.484 3.27596C15.132 1.09196 19.416 -3.62396e-05 24.336 -3.62396e-05ZM31.212 28.44C31.212 22.536 30.936 17.82 30.384 14.292C29.856 10.764 29.04 8.21996 27.936 6.65996C26.856 5.09996 25.476 4.31996 23.796 4.31996C22.26 4.31996 20.988 5.00396 19.98 6.37197C18.972 7.71597 18.216 9.89996 17.712 12.924C17.232 15.924 16.992 19.896 16.992 24.84C16.992 30.744 17.256 35.46 17.784 38.988C18.336 42.516 19.152 45.06 20.232 46.62C21.336 48.18 22.728 48.96 24.408 48.96C25.944 48.96 27.216 48.288 28.224 46.944C29.232 45.576 29.976 43.392 30.456 40.392C30.96 37.368 31.212 33.384 31.212 28.44ZM59.8298 39.672L57.3818 37.8L64.0058 34.416C66.6218 33.072 68.8418 31.524 70.6658 29.772C72.4898 28.02 73.8698 25.968 74.8058 23.616C75.7658 21.264 76.2458 18.528 76.2458 15.408C76.2458 12.528 76.0778 10.236 75.7418 8.53196C75.4298 6.80396 74.9618 5.55596 74.3378 4.78796C73.7378 4.01996 73.0058 3.63596 72.1418 3.63596C70.9418 3.63596 70.0898 4.18796 69.5858 5.29196C69.1058 6.39596 68.8658 7.91996 68.8658 9.86397V14.868C68.8658 17.076 68.1818 18.84 66.8138 20.16C65.4698 21.48 63.5858 22.14 61.1618 22.14C58.8818 22.14 57.0578 21.432 55.6898 20.016C54.3458 18.6 53.6738 16.608 53.6738 14.04C53.6738 11.592 54.3818 9.29996 55.7978 7.16396C57.2378 5.02796 59.4458 3.29996 62.4218 1.97996C65.3978 0.659963 69.2018 -3.62396e-05 73.8338 -3.62396e-05C78.4178 -3.62396e-05 82.1738 0.635963 85.1018 1.90796C88.0298 3.17996 90.1898 4.94396 91.5818 7.19997C92.9978 9.43196 93.7058 11.988 93.7058 14.868C93.7058 17.412 92.9858 19.764 91.5458 21.924C90.1058 24.084 87.8618 26.16 84.8138 28.152C81.7898 30.12 77.9018 32.1 73.1498 34.092L59.8298 39.672ZM52.5578 45.36C52.5578 42.528 53.6618 40.272 55.8698 38.592C58.0778 36.888 61.2818 36.036 65.4818 36.036C67.3778 36.036 69.1658 36.156 70.8458 36.396C72.5258 36.612 74.1698 36.864 75.7778 37.152C77.3858 37.44 79.0298 37.704 80.7098 37.944C82.3898 38.16 84.1658 38.268 86.0378 38.268C87.6458 38.268 88.9418 37.968 89.9258 37.368C90.9338 36.744 91.8458 35.772 92.6618 34.452C93.0458 33.828 93.4538 33.396 93.8858 33.156C94.3418 32.916 94.8338 32.82 95.3618 32.868C95.9858 32.916 96.4538 33.216 96.7658 33.768C97.1018 34.296 97.2218 35.148 97.1258 36.324C96.8138 40.404 96.0938 43.692 94.9658 46.188C93.8378 48.66 92.3378 50.46 90.4658 51.588C88.6178 52.716 86.4338 53.28 83.9138 53.28C81.8978 53.28 80.1338 52.992 78.6218 52.416C77.1338 51.864 75.8498 50.94 74.7698 49.644C73.7138 48.348 72.8018 46.596 72.0338 44.388C71.6498 43.212 71.2898 42.444 70.9538 42.084C70.6418 41.724 70.2218 41.544 69.6938 41.544C69.1178 41.544 68.6378 41.82 68.2538 42.372C67.8698 42.9 67.6178 43.776 67.4978 45C67.3298 47.04 66.8978 48.672 66.2018 49.896C65.5058 51.096 64.5698 51.96 63.3938 52.488C62.2418 53.016 60.8618 53.28 59.2538 53.28C57.3098 53.28 55.7018 52.572 54.4298 51.156C53.1818 49.716 52.5578 47.784 52.5578 45.36Z" fill="#FDD6BA"/>
</svg>
