<svg width="94" height="54" viewBox="0 0 94 54" fill="none" xmlns="http://www.w3.org/2000/svg">
<path d="M24.336 -3.62396e-05C29.424 -3.62396e-05 33.744 1.03196 37.296 3.09596C40.848 5.15996 43.548 8.18397 45.396 12.168C47.268 16.152 48.204 21.012 48.204 26.748C48.204 32.148 47.196 36.84 45.18 40.824C43.188 44.784 40.368 47.856 36.72 50.04C33.096 52.2 28.812 53.28 23.868 53.28C18.804 53.28 14.484 52.248 10.908 50.184C7.356 48.12 4.644 45.096 2.772 41.112C0.924001 37.128 1.01328e-06 32.268 1.01328e-06 26.532C1.01328e-06 21.132 0.996001 16.452 2.988 12.492C5.004 8.50796 7.836 5.43596 11.484 3.27596C15.132 1.09196 19.416 -3.62396e-05 24.336 -3.62396e-05ZM31.212 28.44C31.212 22.536 30.936 17.82 30.384 14.292C29.856 10.764 29.04 8.21996 27.936 6.65996C26.856 5.09996 25.476 4.31996 23.796 4.31996C22.26 4.31996 20.988 5.00396 19.98 6.37197C18.972 7.71597 18.216 9.89996 17.712 12.924C17.232 15.924 16.992 19.896 16.992 24.84C16.992 30.744 17.256 35.46 17.784 38.988C18.336 42.516 19.152 45.06 20.232 46.62C21.336 48.18 22.728 48.96 24.408 48.96C25.944 48.96 27.216 48.288 28.224 46.944C29.232 45.576 29.976 43.392 30.456 40.392C30.96 37.368 31.212 33.384 31.212 28.44ZM71.6018 25.704L70.3778 24.516C70.8578 24.372 71.3738 24.252 71.9258 24.156C72.4778 24.06 73.0658 23.988 73.6898 23.94C74.3138 23.868 74.9738 23.832 75.6698 23.832C79.1018 23.832 82.1138 24.36 84.7058 25.416C87.2978 26.472 89.3138 27.984 90.7538 29.952C92.2178 31.896 92.9498 34.224 92.9498 36.936C92.9498 40.248 92.0978 43.128 90.3938 45.576C88.7138 48.024 86.3018 49.92 83.1578 51.264C80.0378 52.608 76.3058 53.28 71.9618 53.28C67.7618 53.28 64.2698 52.776 61.4858 51.768C58.7018 50.76 56.6138 49.368 55.2218 47.592C53.8538 45.816 53.1698 43.788 53.1698 41.508C53.1698 39.204 53.9258 37.32 55.4378 35.856C56.9498 34.368 58.8218 33.624 61.0538 33.624C63.4778 33.624 65.2898 34.26 66.4898 35.532C67.7138 36.78 68.3258 38.448 68.3258 40.536V44.388C68.3258 45.78 68.6258 46.968 69.2258 47.952C69.8498 48.936 70.7258 49.428 71.8538 49.428C72.9818 49.428 73.9418 49.092 74.7338 48.42C75.5258 47.724 76.1378 46.632 76.5698 45.144C77.0018 43.632 77.2178 41.652 77.2178 39.204C77.2178 35.556 76.6418 32.952 75.4898 31.392C74.3618 29.832 72.8018 29.052 70.8098 29.052H68.2178C67.2338 29.052 66.5018 28.836 66.0218 28.404C65.5418 27.948 65.3018 27.312 65.3018 26.496C65.3018 25.872 65.4338 25.32 65.6978 24.84C65.9858 24.36 66.4898 23.808 67.2098 23.184L83.2298 9.25196L83.6618 13.716H64.5818C63.5738 13.716 62.7938 13.896 62.2418 14.256C61.6898 14.592 61.3178 15.156 61.1258 15.948L60.4058 18.792C60.2378 19.488 59.9138 20.052 59.4338 20.484C58.9778 20.892 58.3058 21.096 57.4178 21.096C56.5538 21.096 55.8458 20.868 55.2938 20.412C54.7418 19.932 54.5138 19.212 54.6098 18.252L55.9058 4.78796C56.0018 3.75596 56.4218 2.93996 57.1658 2.33996C57.9098 1.73996 58.9058 1.43996 60.1538 1.43996H89.4218C90.8858 1.43996 91.9298 1.61996 92.5538 1.97996C93.1778 2.33996 93.4898 2.91596 93.4898 3.70797C93.4898 4.23596 93.2858 4.83596 92.8778 5.50796C92.4938 6.17996 91.6658 7.10396 90.3938 8.27996L71.6018 25.704Z" fill="#FDD6BA"/>
</svg>
